<svg xmlns="http://www.w3.org/2000/svg" viewBox="0 0 320 100" width="320" height="100" role="img" aria-label="Phi.ai">
  <g>
    <defs><clipPath id="counter"><path d="M53 15 C65 16 74 27 74 41 C74 52 66 59 53 61 Z" /></clipPath></defs>
    <path d="M53 15 C65 16 74 27 74 41 C74 52 66 59 53 61 Z" fill="#35B9F0" />
    <g clip-path="url(#counter)">
    <g stroke="#0E1418" stroke-width="0.9" fill="none" stroke-linecap="round">
      <path d="M58 21 L69 28 M58 21 L70 42 M58 37 L69 28 M58 37 L70 42 M59 53 L69 28 M59 53 L70 42 M58 21 L58 37 L59 53 M69 28 L70 42" />
    </g>
    <g fill="#0E1418">
      <circle cx="58" cy="21" r="2.3" /><circle cx="58" cy="37" r="2.3" /><circle cx="59" cy="53" r="2.3" />
      <circle cx="69" cy="28" r="2.3" /><circle cx="70" cy="42" r="2.3" />
    </g>
    </g>
    <g fill="#E8ECF1">
      <path d="M43 9 C28 13 19 28 19 45 C19 58 30 66 48 68 L48 60 C33 58 27 52 27 42 C27 29 33 17 43 13 Z" />
      <path d="M52 10 C68 11 82 26 82 45 C82 60 70 68 53 69 L53 61 C66 59 74 52 74 41 C74 27 65 16 52 15 Z" />
      <path d="M46.6 9 L53.4 9 L53.4 91 L46.6 91 Z" />
    </g>
  </g>
  <text x="116" y="66" font-family="Archivo, 'Helvetica Neue', Helvetica, Arial, sans-serif" font-size="54" font-weight="700" letter-spacing="-1.6" fill="#E8ECF1">Phi<tspan fill="#35B9F0">.ai</tspan></text>
</svg>
